<svg width="480" height="490" viewBox="0 0 480 490" fill="none" xmlns="http://www.w3.org/2000/svg">
<g clip-path="url(#clip0_307_320)">
<path fill-rule="evenodd" clip-rule="evenodd" d="M312.865 206.233C348.87 239.935 381.259 281.575 394.633 329.453C399.501 346.873 400.331 364.292 401.335 382.122C401.407 383.372 400.479 384.425 399.263 384.471C398.045 384.51 397 383.526 396.931 382.268C395.944 364.783 395.17 347.695 390.396 330.612C377.212 283.414 345.156 242.441 309.633 209.272L309.108 209.782C303.42 215.336 292.807 216.87 280.575 215.371C263.041 213.225 242.15 205.092 228.925 195.81C222.983 191.638 218.574 187.189 216.495 182.971C214.873 179.684 214.578 176.477 215.751 173.507C218.255 167.179 225.496 164.822 235.175 165.734C255.417 167.635 286.651 183.149 298.509 193.352C302.21 196.539 305.898 199.808 309.547 203.16C310.574 202.212 311.575 201.279 312.508 200.326C315.159 197.601 317.278 194.655 317.875 190.203C318.797 183.265 316.833 176.029 313.519 169.083C308.338 158.246 299.834 148.133 293.033 140.876C255.158 100.466 210.317 89.632 169.199 89.8286C127.674 90.0347 89.8947 101.442 66.6219 105.365C65.4253 105.57 64.2759 104.724 64.0479 103.484C63.8199 102.244 64.6091 101.074 65.8077 100.875C89.2303 96.9245 127.268 85.4837 169.07 85.2821C211.28 85.0711 257.286 96.2734 296.168 137.751C303.253 145.309 312.073 155.867 317.466 167.152C321.196 174.965 323.284 183.128 322.245 190.936C321.309 197.943 317.418 201.965 312.865 206.233ZM306.292 206.187L306.033 206.444C301.062 211.299 291.684 212.163 280.988 210.851C264.139 208.789 244.058 200.989 231.345 192.063C226.984 189.006 223.509 185.835 221.415 182.707C219.691 180.124 218.928 177.625 219.845 175.319C220.701 173.136 222.457 171.772 224.785 170.985C227.516 170.056 230.972 169.898 234.881 170.263C254.332 172.092 284.34 187.011 295.732 196.816C299.268 199.864 302.794 202.986 306.292 206.187Z" fill="#676767"/>
<path fill-rule="evenodd" clip-rule="evenodd" d="M396.849 389.849C397.672 389.348 398.569 388.325 399.519 387.213C401.786 384.565 403.993 381.154 405.098 379.592C405.811 378.589 407.19 378.397 408.179 379.152C409.17 379.913 409.396 381.339 408.683 382.342C407.327 384.254 404.378 388.794 401.613 391.648C400.129 393.178 398.63 394.228 397.4 394.547C395.306 395.092 393.446 393.865 392.354 390.518C391.065 386.559 390.391 378.601 385.968 373.294C385.164 372.334 385.257 370.892 386.171 370.092C387.088 369.284 388.481 369.413 389.287 370.379C393.501 375.44 394.848 382.593 396.019 387.315C396.243 388.212 396.617 389.241 396.849 389.849Z" fill="#676767"/>
</g>
<defs>
<clipPath id="clip0_307_320">
<rect width="387.618" height="372.446" fill="white" transform="matrix(0.33196 0.943293 0.943293 -0.33196 0 124)"/>
</clipPath>
</defs>
</svg>